<?xml version="1.0" standalone="no"?><svg xmlns="http://www.w3.org/2000/svg" viewBox="0 0 1440 320"><path fill="#fff" fill-opacity="1" d="M0,64L30,101.3C60,139,120,213,180,224C240,235,300,181,360,138.7C420,96,480,64,540,85.3C600,107,660,181,720,213.3C780,245,840,235,900,213.3C960,192,1020,160,1080,154.7C1140,149,1200,171,1260,192C1320,213,1380,235,1410,245.3L1440,256L1440,320L1410,320C1380,320,1320,320,1260,320C1200,320,1140,320,1080,320C1020,320,960,320,900,320C840,320,780,320,720,320C660,320,600,320,540,320C480,320,420,320,360,320C300,320,240,320,180,320C120,320,60,320,30,320L0,320Z"></path></svg>